<svg version="1.1" viewBox="0.0 0.0 438.03937007874015 332.7296587926509" fill="none" stroke="none" stroke-linecap="square" stroke-miterlimit="10" xmlns:xlink="http://www.w3.org/1999/xlink" xmlns="http://www.w3.org/2000/svg"><clipPath id="p.0"><path d="m0 0l438.03937 0l0 332.72964l-438.03937 0l0 -332.72964z" clip-rule="nonzero"/></clipPath><g clip-path="url(#p.0)"><path fill="#000000" fill-opacity="0.0" d="m0 0l438.03937 0l0 332.72964l-438.03937 0z" fill-rule="evenodd"/><path fill="#000000" fill-opacity="0.0" d="m15.328084 360.0l166.26772 -355.65353" fill-rule="evenodd"/><path stroke="#ffffff" stroke-width="16.0" stroke-linejoin="round" stroke-linecap="butt" d="m15.328084 360.0l166.26772 -355.65353" fill-rule="evenodd"/><path fill="#000000" fill-opacity="0.0" d="m179.95801 9.241469l63.55905 149.5748" fill-rule="evenodd"/><path stroke="#ffffff" stroke-width="16.0" stroke-linejoin="round" stroke-linecap="butt" d="m179.95801 9.241469l63.55905 149.5748" fill-rule="evenodd"/><path fill="#000000" fill-opacity="0.0" d="m211.76115 222.35432l84.535446 -166.89763" fill-rule="evenodd"/><path stroke="#ffffff" stroke-width="16.0" stroke-linejoin="round" stroke-linecap="butt" d="m211.76115 222.35432l84.535446 -166.89763" fill-rule="evenodd"/><path fill="#000000" fill-opacity="0.0" d="m293.5853 60.892387l145.25986 302.64566" fill-rule="evenodd"/><path stroke="#ffffff" stroke-width="16.0" stroke-linejoin="round" stroke-linecap="butt" d="m293.5853 60.892387l145.25986 302.64566" fill-rule="evenodd"/><path fill="#000000" fill-opacity="0.0" d="m183.56168 158.82414l61.637802 143.46458" fill-rule="evenodd"/><path stroke="#ffffff" stroke-width="16.0" stroke-linejoin="round" stroke-linecap="butt" d="m183.56168 158.82414l61.637802 143.46458" fill-rule="evenodd"/><path fill="#000000" fill-opacity="0.0" d="m240.30446 294.1286l57.070877 -101.66928" fill-rule="evenodd"/><path stroke="#ffffff" stroke-width="16.0" stroke-linejoin="round" stroke-linecap="butt" d="m240.30446 294.1286l57.070877 -101.66928" fill-rule="evenodd"/><path fill="#000000" fill-opacity="0.0" d="m294.1496 197.6483l81.66931 151.77953" fill-rule="evenodd"/><path stroke="#ffffff" stroke-width="16.0" stroke-linejoin="round" stroke-linecap="butt" d="m294.1496 197.6483l81.66931 151.77953" fill-rule="evenodd"/><path fill="#000000" fill-opacity="0.0" d="m261.17322 258.82416l60.031494 95.30707" fill-rule="evenodd"/><path stroke="#ffffff" stroke-width="16.0" stroke-linejoin="round" stroke-linecap="butt" d="m261.17322 258.82416l60.031494 95.30707" fill-rule="evenodd"/><path fill="#000000" fill-opacity="0.0" d="m184.70341 268.2362l32.97638 83.52759" fill-rule="evenodd"/><path stroke="#ffffff" stroke-width="16.0" stroke-linejoin="round" stroke-linecap="butt" d="m184.70341 268.2362l32.97638 83.52759" fill-rule="evenodd"/><path fill="#000000" fill-opacity="0.0" d="m137.64305 356.46982l48.283463 -93.322845" fill-rule="evenodd"/><path stroke="#ffffff" stroke-width="16.0" stroke-linejoin="round" stroke-linecap="butt" d="m137.64305 356.46982l48.283463 -93.322845" fill-rule="evenodd"/><path fill="#000000" fill-opacity="0.0" d="m85.91601 357.6483l99.46458 -205.41731" fill-rule="evenodd"/><path stroke="#ffffff" stroke-width="16.0" stroke-linejoin="round" stroke-linecap="butt" d="m85.91601 357.6483l99.46458 -205.41731" fill-rule="evenodd"/><path fill="#000000" fill-opacity="0.0" d="m-18.832022 496.33072l563.5276 -1.1653748" fill-rule="evenodd"/><path stroke="#000000" stroke-width="1.0" stroke-linejoin="round" stroke-linecap="butt" d="m-18.832022 496.33072l563.5276 -1.1653748" fill-rule="evenodd"/></g></svg>